# xmcd CD database file
#
# Track frame offsets:
#	150
#	29212
#	51909
#	58718
#	72291
#	94623
#	115599
#	123376
#	139019
#	158126
#	172992
#	189712
#	193824
#	208585
#
# Disc length: 3126 seconds
#
# Revision: 0
# Processed by: cddbd v1.5.2PL0 Copyright (c) Steve Scherf et al.
# Submitted via: CDex 1.51
#
DISCID=cd0c340e
DTITLE=江原啓之 - ひと語り
DYEAR=2013
DGENRE=New Age
TTITLE0=Scaborough Fair
TTITLE1=ルリカケスのうた
TTITLE2=あしあと
TTITLE3=雨ニモマケズ
TTITLE4=やからみち
TTITLE5=竹田の子守唄
TTITLE6=富良野塾起草文
TTITLE7=天国
TTITLE8=最後だとわかっていたなら
TTITLE9=アヴェ マリア
TTITLE10=楽園
TTITLE11=アザミは土から
TTITLE12=天使のリュート
TTITLE13=光の輪舞曲
EXTD=YEAR: 2013
EXTT0=
EXTT1=
EXTT2=
EXTT3=
EXTT4=
EXTT5=
EXTT6=
EXTT7=
EXTT8=
EXTT9=
EXTT10=
EXTT11=
EXTT12=
EXTT13=
PLAYORDER=
